<?xml version="1.0" encoding="utf-8"?>
<!-- Generator: Adobe Illustrator 24.0.0, SVG Export Plug-In . SVG Version: 6.00 Build 0)  -->
<svg version="1.1" id="Capa_1" xmlns="http://www.w3.org/2000/svg" xmlns:xlink="http://www.w3.org/1999/xlink" x="0px" y="0px"
	 viewBox="0 0 290 46" style="enable-background:new 0 0 290 46;" xml:space="preserve">
<style type="text/css">
	.st0{fill:#3DB3E5;}
	.st1{fill:#87C9EB;}
	.st2{fill:#F2B02B;}
</style>
<g>
	<path class="st0" d="M104.29,0.27c-7.6,0-13.76,6.29-13.76,14.04s6.16,14.04,13.76,14.04c7.6,0,13.76-6.29,13.76-14.04
		S111.89,0.27,104.29,0.27 M104.29,23.74c-4.94,0-8.94-4.41-8.94-9.45s4-9.43,8.94-9.43c4.94,0,8.94,4.38,8.94,9.43
		S109.23,23.74,104.29,23.74"/>
	<path class="st0" d="M79.52,0.27c3.88,0,7.39,1.57,9.93,4.11l-3.48,3.48c-1.65-1.65-3.93-2.99-6.45-2.99
		c-5.04,0-9.13,4.41-9.13,9.45s4.09,9.43,9.13,9.43c2.52,0,4.8-1.32,6.45-2.98l3.48,3.48c-2.54,2.54-6.05,4.11-9.93,4.11
		c-7.76,0-14.04-6.29-14.04-14.04C65.48,6.56,71.77,0.27,79.52,0.27"/>
	<path class="st0" d="M235.27,8.94c0-4.87,4.42-8.67,12.65-8.67c4.2,0,8.93,1.72,11.32,4.11l-3.48,3.48
		c-1.65-1.65-4.58-2.97-8.14-2.97c-5.3,0-7.44,1.6-7.44,4.24c0,6.38,20.71-0.86,20.71,10.65c0,4.99-5,8.58-13.55,8.58
		c-3.88,0-9.17-1.57-11.71-4.11l3.48-3.48c1.65,1.65,6.37,2.97,8.9,2.97c5.04,0,7.98-1.37,7.98-3.98
		C255.98,14.31,235.27,21.03,235.27,8.94"/>
	<path class="st0" d="M203.96,9.88c0-5.21-4.25-9.61-11.86-9.61c-7.76,0-13.14,6.29-13.14,14.04s6.29,14.04,14.04,14.04
		c5.15,0,8.4-2.3,10.76-5.02l-3.04-2.99c-1.92,2.17-4.37,3.4-7.39,3.4c-4.22,0-8.05-2.4-9.11-5.95h10.63
		C200.09,17.79,203.96,14.9,203.96,9.88 M192.21,4.79c4.95,0,6.68,2.65,6.68,5.09c0,2.78-2.02,3.74-3.63,3.74h-11.37
		C184.14,8.95,186.66,4.79,192.21,4.79"/>
	<path class="st0" d="M264.7,19.34c0,5.06,4.86,9.02,12.21,9.02c7.98,0,13.09-6.29,13.09-14.04c0-7.76-5.47-14.04-14.04-14.04
		c-5.15,0-8.27,1.94-10.63,4.66l3.21,3.16c1.92-2.17,4.4-3.2,7.42-3.2c4.49,0,8.15,2.28,9.08,6.74h-11.22
		C268.57,11.62,264.7,14.32,264.7,19.34 M277.14,23.84c-5.42,0-7.37-2.53-7.37-4.64c0-2.53,2.02-3.4,3.63-3.4h11.86
		C285.01,20.47,282.69,23.84,277.14,23.84"/>
	<polygon class="st0" points="147.9,0.9 143.07,0.9 143.07,20.3 127.42,0.9 127.42,0.9 122.59,0.9 122.59,27.73 127.42,27.73 
		127.42,8.11 143.07,27.69 143.07,27.73 143.1,27.73 143.11,27.74 143.11,27.73 147.9,27.73 	"/>
	<polygon class="st0" points="173.28,0.9 164.89,23 156.49,0.9 151.27,0.99 161.9,27.73 167.77,27.73 178.4,0.99 	"/>
	<path class="st0" d="M232.03,27.73l-4.66-10.14c3-1.25,4.48-3.83,4.48-7.89c0-6.03-4.33-8.8-9.07-8.8h-14.17v26.83h4.47v-9.23h10
		l3.73,9.23H232.03z M213.08,14.32V5.07h9.57c2.74,0,4.73,2.22,4.73,4.63s-1.85,4.63-4.73,4.63H213.08z"/>
	<polygon class="st1" points="127.97,41.92 127.97,43.17 122.59,43.17 122.59,34.6 123.98,34.6 123.98,42.03 	"/>
	<path class="st1" d="M134.83,43.12l0,0.03l-1.16,0.15c-0.17-0.24-0.27-0.51-0.3-0.94h-0.03c-0.51,0.58-1.16,0.94-2.07,0.94
		c-1.15,0-2.15-0.56-2.15-1.8c0-1.34,1.17-2.28,3.9-2.28h0.34c-0.01-1.18-0.62-1.59-1.7-1.59c-0.73,0-1.29,0.19-1.91,0.62h-0.02
		l-0.37-1.04c0.75-0.47,1.51-0.66,2.47-0.66c1.91,0,2.78,0.75,2.78,2.59v1.91C134.6,42.04,134.66,42.64,134.83,43.12 M133.35,40.42
		v-0.3h-0.38c-1.93,0-2.54,0.58-2.54,1.25c0,0.61,0.49,0.9,1.15,0.9C132.49,42.27,133.35,41.71,133.35,40.42"/>
	<path class="st1" d="M142.67,38.99v4.19h-1.34V39.3c0-1.09-0.42-1.64-1.29-1.64c-0.91,0-1.85,0.58-1.85,2.16v3.36h-1.34v-5.28
		l-0.1-1.12l1.17-0.18l0.23,0.99h0.02c0.52-0.63,1.32-1.04,2.28-1.04C141.83,36.54,142.67,37.39,142.67,38.99"/>
	<path class="st1" d="M150.64,37.68l-1.03-0.07c0.21,0.34,0.32,0.74,0.32,1.21c0,1.37-1.04,2.27-2.64,2.27c-0.04,0-0.09,0-0.13,0
		c-0.5,0.02-0.73,0.13-0.73,0.34c0,0.2,0.23,0.32,0.69,0.34c2.46,0.14,3.36,0.66,3.36,1.92c0,1.24-1.27,2.04-3.23,2.04
		c-1.87,0-2.98-0.7-2.98-1.87c0-0.79,0.44-1.32,1.36-1.64c-0.33-0.13-0.52-0.37-0.52-0.66c0-0.37,0.29-0.64,0.79-0.75
		c-0.79-0.36-1.23-1.05-1.23-2c0-1.36,1.06-2.28,2.64-2.28c0.55,0,1.04,0.11,1.44,0.3l1.96-0.28l0.02,0.01L150.64,37.68z
		 M146.46,42.75c-0.6,0.13-0.95,0.51-0.95,1.01c0,0.65,0.66,1.03,1.78,1.03c1.16,0,1.86-0.41,1.86-1.07
		C149.15,43,148.52,42.77,146.46,42.75 M148.64,38.82c0-0.89-0.47-1.37-1.32-1.37c-0.82,0-1.35,0.54-1.35,1.38
		c0,0.84,0.51,1.36,1.33,1.36C148.12,40.19,148.64,39.67,148.64,38.82"/>
	<path class="st1" d="M158.2,43.12l0,0.03l-1.21,0.15c-0.14-0.19-0.27-0.47-0.33-0.94h-0.05c-0.43,0.57-1.29,0.94-2.17,0.94
		c-1.3,0-2.16-0.8-2.16-2.45v-4.12l1.34-0.19v4.01c0,1.18,0.49,1.63,1.28,1.63c0.77,0,1.72-0.41,1.72-1.73v-3.79h1.34v4.6
		C157.96,42.16,158.05,42.68,158.2,43.12"/>
	<path class="st1" d="M165.5,43.12l0,0.03l-1.16,0.15c-0.17-0.24-0.27-0.51-0.3-0.94H164c-0.51,0.58-1.16,0.94-2.07,0.94
		c-1.15,0-2.15-0.56-2.15-1.8c0-1.34,1.17-2.28,3.9-2.28h0.34c-0.02-1.18-0.62-1.59-1.7-1.59c-0.73,0-1.29,0.19-1.91,0.62h-0.02
		l-0.37-1.04c0.75-0.47,1.51-0.66,2.47-0.66c1.91,0,2.78,0.75,2.78,2.59v1.91C165.27,42.04,165.33,42.64,165.5,43.12 M164.02,40.42
		v-0.3h-0.38c-1.93,0-2.54,0.58-2.54,1.25c0,0.61,0.49,0.9,1.15,0.9C163.15,42.27,164.02,41.71,164.02,40.42"/>
	<path class="st1" d="M173.27,37.68l-1.03-0.07c0.21,0.34,0.32,0.74,0.32,1.21c0,1.37-1.04,2.27-2.64,2.27c-0.04,0-0.09,0-0.13,0
		c-0.5,0.02-0.73,0.13-0.73,0.34c0,0.2,0.23,0.32,0.69,0.34c2.46,0.14,3.36,0.66,3.36,1.92c0,1.24-1.27,2.04-3.23,2.04
		c-1.87,0-2.98-0.7-2.98-1.87c0-0.79,0.44-1.32,1.36-1.64c-0.33-0.13-0.52-0.37-0.52-0.66c0-0.37,0.29-0.64,0.79-0.75
		c-0.79-0.36-1.23-1.05-1.23-2c0-1.36,1.06-2.28,2.64-2.28c0.55,0,1.04,0.11,1.44,0.3l1.96-0.28l0.02,0.01L173.27,37.68z
		 M169.09,42.75c-0.6,0.13-0.95,0.51-0.95,1.01c0,0.65,0.66,1.03,1.78,1.03c1.16,0,1.86-0.41,1.86-1.07
		C171.78,43,171.15,42.77,169.09,42.75 M171.27,38.82c0-0.89-0.47-1.37-1.32-1.37c-0.82,0-1.35,0.54-1.35,1.38
		c0,0.84,0.51,1.36,1.33,1.36C170.75,40.19,171.27,39.67,171.27,38.82"/>
	<path class="st1" d="M180.09,40.25h-4.27c0.08,1.33,0.73,1.96,1.99,1.96c0.84,0,1.49-0.22,1.95-0.64h0.02l0.37,1.05
		c-0.47,0.3-1.43,0.66-2.5,0.66c-2.12,0-3.17-1.4-3.17-3.26c0-2.06,1.27-3.49,3.22-3.49c1.7,0,2.56,1.1,2.56,2.81
		c0,0.23-0.01,0.5-0.03,0.78L180.09,40.25z M179.05,38.98c0-0.82-0.52-1.43-1.44-1.43c-0.94,0-1.61,0.63-1.77,1.86l3.19-0.09
		C179.05,39.22,179.05,39.17,179.05,38.98"/>
	<path class="st1" d="M190.48,36.32c-0.76-0.5-1.37-0.65-2.03-0.65c-1.1,0-1.68,0.41-1.67,1.11c0.02,1.88,4.35,1.08,4.35,4.01
		c0,1.55-1.23,2.49-3.19,2.49c-1.05,0-1.99-0.27-2.8-0.76l0.39-1.25l0.02,0c0.78,0.59,1.47,0.84,2.39,0.84
		c1.15,0,1.75-0.4,1.75-1.17c-0.01-2.03-4.33-1.13-4.33-4.08c0-1.47,1.08-2.36,3.1-2.36c0.83,0,1.56,0.15,2.43,0.6l-0.39,1.23
		L190.48,36.32z"/>
	<path class="st1" d="M194.03,39.98c0,1.47,0.66,2.19,1.87,2.19c0.65,0,1.3-0.21,1.81-0.62h0.02l0.37,1.07
		c-0.48,0.3-1.37,0.67-2.38,0.67c-1.98,0-3.09-1.39-3.09-3.32c0-2.01,1.2-3.43,3.29-3.43c1.05,0,1.81,0.36,2.11,0.61l-0.38,1.05
		h-0.02c-0.43-0.33-1.05-0.56-1.67-0.56C194.79,37.64,194.03,38.41,194.03,39.98"/>
	<path class="st1" d="M205.65,38.99v4.19h-1.34V39.3c0-1.09-0.41-1.64-1.29-1.64c-0.9,0-1.85,0.58-1.85,2.16v3.36h-1.34v-8.99
		l1.34-0.21v3.57h0.04c0.47-0.61,1.26-1.01,2.21-1.01C204.81,36.54,205.65,37.39,205.65,38.99"/>
	<path class="st1" d="M207.47,39.92c0-2.15,1.31-3.38,3.26-3.38c1.95,0,3.26,1.24,3.26,3.38c0,2.13-1.29,3.38-3.26,3.38
		C208.76,43.29,207.47,42.05,207.47,39.92 M212.61,39.91c-0.01-1.48-0.72-2.29-1.87-2.29c-1.16,0-1.87,0.81-1.88,2.29
		c-0.01,1.48,0.72,2.29,1.88,2.29C211.89,42.21,212.62,41.4,212.61,39.91"/>
	<path class="st1" d="M215.51,39.92c0-2.15,1.31-3.38,3.26-3.38c1.95,0,3.26,1.24,3.26,3.38c0,2.13-1.29,3.38-3.26,3.38
		C216.8,43.29,215.51,42.05,215.51,39.92 M220.64,39.91c-0.01-1.48-0.72-2.29-1.87-2.29c-1.16,0-1.87,0.81-1.88,2.29
		c-0.01,1.48,0.72,2.29,1.88,2.29C219.92,42.21,220.65,41.4,220.64,39.91"/>
	<polygon class="st1" points="223.92,34.2 225.26,33.98 225.26,43.17 223.92,43.17 	"/>
	<path class="st1" d="M236.93,39.72c0,2.32-1.29,3.58-3.43,3.58c-1.02,0-1.99-0.28-2.6-0.7v-8.4l1.34-0.22v3.56h0.05
		c0.45-0.61,1.12-1,2.05-1C235.91,36.54,236.93,37.66,236.93,39.72 M235.53,39.86c0-1.52-0.6-2.22-1.54-2.22
		c-0.89,0-1.75,0.64-1.75,2.17v2.07c0.22,0.22,0.78,0.33,1.3,0.33C234.85,42.2,235.53,41.46,235.53,39.86"/>
	<path class="st1" d="M244.53,36.66l-1.79,4.46c-1.09,2.73-1.9,3.64-3.35,4.51l-1.02-0.7l0-0.03c1.07-0.61,1.77-1.31,2.16-2.04
		l-2.59-6.1l1.49-0.21l1.32,3.58c0.18,0.52,0.35,1.07,0.5,1.64h0.1c0.15-0.56,0.31-1.11,0.5-1.63l1.26-3.5H244.53z"/>
	<polygon class="st1" points="254.88,35.8 252.18,35.76 252.18,43.17 250.78,43.17 250.78,35.75 248.09,35.71 248.09,34.6 
		254.88,34.6 	"/>
	<path class="st1" d="M260.65,40.25h-4.27c0.08,1.33,0.73,1.96,1.99,1.96c0.84,0,1.49-0.22,1.95-0.64h0.02l0.37,1.05
		c-0.47,0.3-1.43,0.66-2.5,0.66c-2.12,0-3.17-1.4-3.17-3.26c0-2.06,1.27-3.49,3.22-3.49c1.7,0,2.56,1.1,2.56,2.81
		c0,0.23-0.01,0.5-0.03,0.78L260.65,40.25z M259.61,38.98c0-0.82-0.52-1.43-1.44-1.43c-0.94,0-1.61,0.63-1.77,1.86l3.19-0.09
		C259.61,39.22,259.61,39.17,259.61,38.98"/>
	<path class="st1" d="M263.73,39.98c0,1.47,0.66,2.19,1.87,2.19c0.65,0,1.3-0.21,1.81-0.62h0.02l0.37,1.07
		c-0.48,0.3-1.37,0.67-2.38,0.67c-1.98,0-3.09-1.39-3.09-3.32c0-2.01,1.2-3.43,3.29-3.43c1.05,0,1.81,0.36,2.11,0.61l-0.38,1.05
		h-0.02c-0.43-0.33-1.05-0.56-1.67-0.56C264.49,37.64,263.73,38.41,263.73,39.98"/>
	<path class="st1" d="M273.68,38.22h-0.04c-0.53-0.41-1.15-0.66-1.82-0.66c-0.78,0-1.2,0.34-1.2,0.82c0,1.38,3.6,0.57,3.6,2.97
		c0,1.37-1.19,1.94-2.66,1.94c-0.98,0-1.88-0.26-2.53-0.66l0.37-1.04h0.03c0.49,0.43,1.19,0.69,2.03,0.69
		c0.87,0,1.37-0.29,1.37-0.84c0-1.45-3.58-0.66-3.58-2.99c0-1.17,0.92-1.9,2.54-1.9c0.92,0,1.63,0.24,2.25,0.63L273.68,38.22z"/>
	<path class="st1" d="M281.91,43.12l0,0.03l-1.21,0.15c-0.14-0.19-0.27-0.47-0.33-0.94h-0.05c-0.43,0.57-1.29,0.94-2.17,0.94
		c-1.3,0-2.16-0.8-2.16-2.45v-4.12l1.34-0.19v4.01c0,1.18,0.49,1.63,1.28,1.63c0.77,0,1.72-0.41,1.72-1.73v-3.79h1.34v4.6
		C281.67,42.16,281.77,42.68,281.91,43.12"/>
	<path class="st1" d="M290,39.72c0,2.3-1.28,3.58-3.28,3.58c-0.52,0-0.98-0.08-1.41-0.23v2.32l-1.34,0.22v-7.72l-0.1-1.12l1.16-0.18
		l0.22,0.98v0h0.05c0.47-0.63,1.15-1.03,2.11-1.03C288.97,36.54,290,37.66,290,39.72 M288.59,39.87c0-1.51-0.6-2.24-1.51-2.24
		c-0.93,0-1.78,0.66-1.78,2.17v2.07c0.22,0.21,0.77,0.33,1.32,0.33C287.93,42.21,288.59,41.47,288.59,39.87"/>
	<path class="st2" d="M51.35,1.95l-5.73,3.18c1.49,3.99,2.3,8.3,2.3,12.8c0,4.57-0.84,8.94-2.36,12.97l5.73,3.18
		c1.51-4.52,2.89-9.38,2.89-16.15C54.17,10.28,52.76,4.76,51.35,1.95"/>
	<path class="st2" d="M42.3,6.88l-5.52,3.21c0.85,2.46,1.32,5.1,1.32,7.84c0,2.81-0.49,5.51-1.38,8.02l5.51,3.2
		c1.15-3.47,2.15-7.97,2.15-11.22C44.39,13.01,43.14,9.31,42.3,6.88"/>
	<path class="st2" d="M28.27,17.65c0,1.95,1.58,3.53,3.53,3.53c1.95,0,3.53-1.58,3.53-3.53c0-1.95-1.58-3.53-3.53-3.53
		C29.85,14.12,28.27,15.7,28.27,17.65"/>
	<path class="st0" d="M15.68,29.57c-5.6-0.86-9.43-5.35-9.43-11.63c0-6.11,4.71-11.78,11.43-11.78c5.19,0,8.04,2.59,9.95,5.91
		l5.36-2.94c-3.05-5.29-8.76-8.85-15.31-8.85c-5.17,0-9.83,2.22-13.06,5.77C4.57,6.08,4.54,6.12,4.5,6.16
		c-0.09,0.1-0.17,0.19-0.25,0.29C-2.78,14.87,3.93,28.02,15.68,29.57"/>
	<path class="st1" d="M17.78,29.72c0.07,0,0.13,0,0.2,0C17.91,29.72,17.85,29.72,17.78,29.72c-0.04,0-0.07,0-0.11,0
		c-0.69,0-1.35-0.05-1.99-0.15C3.93,28.02-2.78,14.87,4.25,6.45C1.6,9.54,0,13.55,0,17.94c0,9.76,7.91,17.67,17.67,17.67
		c6.54,0,12.24-3.55,15.3-8.84l-5.36-2.94C25.71,27.11,22.8,29.68,17.78,29.72"/>
</g>
<g>
</g>
<g>
</g>
<g>
</g>
<g>
</g>
<g>
</g>
<g>
</g>
<g>
</g>
<g>
</g>
<g>
</g>
<g>
</g>
<g>
</g>
<g>
</g>
<g>
</g>
<g>
</g>
<g>
</g>
</svg>
